<svg xmlns="http://www.w3.org/2000/svg" xmlns:xlink="http://www.w3.org/1999/xlink" width="390" zoomAndPan="magnify" viewBox="0 0 292.5 60.75" height="81" preserveAspectRatio="xMidYMid meet" version="1.0"><defs><g/><clipPath id="b47f41dbb6"><path d="M 21 38 L 29 38 L 29 47 L 21 47 Z M 21 38 " clip-rule="nonzero"/></clipPath><clipPath id="440e755789"><path d="M 13.582031 60.597656 L 0.253906 20.875 L 43.523438 6.355469 L 56.851562 46.078125 Z M 13.582031 60.597656 " clip-rule="nonzero"/></clipPath><clipPath id="caf6f107f4"><path d="M 13.582031 60.597656 L 0.253906 20.875 L 43.523438 6.355469 L 56.851562 46.078125 Z M 13.582031 60.597656 " clip-rule="nonzero"/></clipPath><clipPath id="b341512313"><path d="M 16 23 L 26 23 L 26 29 L 16 29 Z M 16 23 " clip-rule="nonzero"/></clipPath><clipPath id="fcff33b2f1"><path d="M 13.582031 60.597656 L 0.253906 20.875 L 43.523438 6.355469 L 56.851562 46.078125 Z M 13.582031 60.597656 " clip-rule="nonzero"/></clipPath><clipPath id="251d076023"><path d="M 13.582031 60.597656 L 0.253906 20.875 L 43.523438 6.355469 L 56.851562 46.078125 Z M 13.582031 60.597656 " clip-rule="nonzero"/></clipPath><clipPath id="1bcd2dbf51"><path d="M 36 14 L 42 14 L 42 25 L 36 25 Z M 36 14 " clip-rule="nonzero"/></clipPath><clipPath id="69d41afb58"><path d="M 13.582031 60.597656 L 0.253906 20.875 L 43.523438 6.355469 L 56.851562 46.078125 Z M 13.582031 60.597656 " clip-rule="nonzero"/></clipPath><clipPath id="86c7b27764"><path d="M 13.582031 60.597656 L 0.253906 20.875 L 43.523438 6.355469 L 56.851562 46.078125 Z M 13.582031 60.597656 " clip-rule="nonzero"/></clipPath><clipPath id="2c544ab557"><path d="M 39 37 L 47 37 L 47 45 L 39 45 Z M 39 37 " clip-rule="nonzero"/></clipPath><clipPath id="c52f49401b"><path d="M 13.582031 60.597656 L 0.253906 20.875 L 43.523438 6.355469 L 56.851562 46.078125 Z M 13.582031 60.597656 " clip-rule="nonzero"/></clipPath><clipPath id="f59856bee6"><path d="M 13.582031 60.597656 L 0.253906 20.875 L 43.523438 6.355469 L 56.851562 46.078125 Z M 13.582031 60.597656 " clip-rule="nonzero"/></clipPath><clipPath id="b26639ba32"><path d="M 10 43 L 26 43 L 26 59 L 10 59 Z M 10 43 " clip-rule="nonzero"/></clipPath><clipPath id="952e4ccedd"><path d="M 13.582031 60.597656 L 0.253906 20.875 L 43.523438 6.355469 L 56.851562 46.078125 Z M 13.582031 60.597656 " clip-rule="nonzero"/></clipPath><clipPath id="b63c3f9034"><path d="M 13.582031 60.597656 L 0.253906 20.875 L 43.523438 6.355469 L 56.851562 46.078125 Z M 13.582031 60.597656 " clip-rule="nonzero"/></clipPath><clipPath id="bb560c39d6"><path d="M 10 43 L 26 43 L 26 57 L 10 57 Z M 10 43 " clip-rule="nonzero"/></clipPath><clipPath id="7c3a2088a3"><path d="M 13.582031 60.597656 L 0.253906 20.875 L 43.523438 6.355469 L 56.851562 46.078125 Z M 13.582031 60.597656 " clip-rule="nonzero"/></clipPath><clipPath id="0304495a23"><path d="M 13.582031 60.597656 L 0.253906 20.875 L 43.523438 6.355469 L 56.851562 46.078125 Z M 13.582031 60.597656 " clip-rule="nonzero"/></clipPath><clipPath id="5e566ee821"><path d="M 8 16 L 19 16 L 19 28 L 8 28 Z M 8 16 " clip-rule="nonzero"/></clipPath><clipPath id="aaef05dc91"><path d="M 13.582031 60.597656 L 0.253906 20.875 L 43.523438 6.355469 L 56.851562 46.078125 Z M 13.582031 60.597656 " clip-rule="nonzero"/></clipPath><clipPath id="ea4daab9e7"><path d="M 13.582031 60.597656 L 0.253906 20.875 L 43.523438 6.355469 L 56.851562 46.078125 Z M 13.582031 60.597656 " clip-rule="nonzero"/></clipPath><clipPath id="cd583be989"><path d="M 8 16 L 19 16 L 19 25 L 8 25 Z M 8 16 " clip-rule="nonzero"/></clipPath><clipPath id="7344bc2c3d"><path d="M 13.582031 60.597656 L 0.253906 20.875 L 43.523438 6.355469 L 56.851562 46.078125 Z M 13.582031 60.597656 " clip-rule="nonzero"/></clipPath><clipPath id="f7b80013b1"><path d="M 13.582031 60.597656 L 0.253906 20.875 L 43.523438 6.355469 L 56.851562 46.078125 Z M 13.582031 60.597656 " clip-rule="nonzero"/></clipPath><clipPath id="3302e9a511"><path d="M 38 9 L 46 9 L 46 17 L 38 17 Z M 38 9 " clip-rule="nonzero"/></clipPath><clipPath id="d4c96d39a9"><path d="M 13.582031 60.597656 L 0.253906 20.875 L 43.523438 6.355469 L 56.851562 46.078125 Z M 13.582031 60.597656 " clip-rule="nonzero"/></clipPath><clipPath id="161b416bea"><path d="M 13.582031 60.597656 L 0.253906 20.875 L 43.523438 6.355469 L 56.851562 46.078125 Z M 13.582031 60.597656 " clip-rule="nonzero"/></clipPath><clipPath id="943eb6d862"><path d="M 44 41 L 52 41 L 52 49 L 44 49 Z M 44 41 " clip-rule="nonzero"/></clipPath><clipPath id="9d7bb12e77"><path d="M 13.582031 60.597656 L 0.253906 20.875 L 43.523438 6.355469 L 56.851562 46.078125 Z M 13.582031 60.597656 " clip-rule="nonzero"/></clipPath><clipPath id="4530d2c8a0"><path d="M 13.582031 60.597656 L 0.253906 20.875 L 43.523438 6.355469 L 56.851562 46.078125 Z M 13.582031 60.597656 " clip-rule="nonzero"/></clipPath><clipPath id="bd6c24f4d7"><path d="M 22 21 L 44 21 L 44 44 L 22 44 Z M 22 21 " clip-rule="nonzero"/></clipPath><clipPath id="220b0e1eb4"><path d="M 13.582031 60.597656 L 0.253906 20.875 L 43.523438 6.355469 L 56.851562 46.078125 Z M 13.582031 60.597656 " clip-rule="nonzero"/></clipPath><clipPath id="226f7fbfd9"><path d="M 13.582031 60.597656 L 0.253906 20.875 L 43.523438 6.355469 L 56.851562 46.078125 Z M 13.582031 60.597656 " clip-rule="nonzero"/></clipPath><clipPath id="880c7f8cea"><path d="M 22 21 L 44 21 L 44 41 L 22 41 Z M 22 21 " clip-rule="nonzero"/></clipPath><clipPath id="e564f2a7c5"><path d="M 13.582031 60.597656 L 0.253906 20.875 L 43.523438 6.355469 L 56.851562 46.078125 Z M 13.582031 60.597656 " clip-rule="nonzero"/></clipPath><clipPath id="06732693e1"><path d="M 13.582031 60.597656 L 0.253906 20.875 L 43.523438 6.355469 L 56.851562 46.078125 Z M 13.582031 60.597656 " clip-rule="nonzero"/></clipPath></defs><g clip-path="url(#b47f41dbb6)"><g clip-path="url(#440e755789)"><g clip-path="url(#caf6f107f4)"><path fill="#f96f2f" d="M 23.074219 46.976562 L 28.300781 39.699219 L 26.808594 38.679688 L 21.402344 45.960938 L 23.074219 46.976562 " fill-opacity="1" fill-rule="nonzero"/></g></g></g><g clip-path="url(#b341512313)"><g clip-path="url(#fcff33b2f1)"><g clip-path="url(#251d076023)"><path fill="#f96f2f" d="M 24.5625 28.550781 L 16.335938 24.179688 L 16.902344 23.078125 L 25.691406 26.808594 L 24.5625 28.550781 " fill-opacity="1" fill-rule="nonzero"/></g></g></g><g clip-path="url(#1bcd2dbf51)"><g clip-path="url(#69d41afb58)"><g clip-path="url(#86c7b27764)"><path fill="#f96f2f" d="M 36.566406 23.667969 L 40.746094 14.574219 L 41.589844 14.796875 L 37.875 24.542969 L 36.566406 23.667969 " fill-opacity="1" fill-rule="nonzero"/></g></g></g><g clip-path="url(#2c544ab557)"><g clip-path="url(#c52f49401b)"><g clip-path="url(#f59856bee6)"><path fill="#f96f2f" d="M 39.734375 39.503906 L 46.09375 44.65625 L 46.714844 43.839844 L 40.332031 37.664062 L 39.734375 39.503906 " fill-opacity="1" fill-rule="nonzero"/></g></g></g><g clip-path="url(#b26639ba32)"><g clip-path="url(#952e4ccedd)"><g clip-path="url(#b63c3f9034)"><path fill="#f96f32" d="M 15.917969 43.851562 C 19.867188 42.527344 24.144531 44.664062 25.472656 48.625 C 26.800781 52.585938 24.679688 56.871094 20.730469 58.199219 C 16.78125 59.523438 12.503906 57.386719 11.175781 53.421875 C 9.84375 49.460938 11.96875 45.175781 15.917969 43.851562 " fill-opacity="1" fill-rule="nonzero"/></g></g></g><g clip-path="url(#bb560c39d6)"><g clip-path="url(#7c3a2088a3)"><g clip-path="url(#0304495a23)"><path fill="#f96f2f" d="M 10.847656 50 C 11.691406 49.046875 12.789062 48.292969 14.082031 47.859375 C 18.03125 46.53125 22.3125 48.671875 23.640625 52.632812 C 24.023438 53.773438 24.117188 54.9375 23.964844 56.054688 C 25.699219 54.097656 26.367188 51.289062 25.472656 48.625 C 24.144531 44.664062 19.867188 42.527344 15.917969 43.851562 C 13.105469 44.796875 11.21875 47.242188 10.847656 50 " fill-opacity="1" fill-rule="nonzero"/></g></g></g><g clip-path="url(#5e566ee821)"><g clip-path="url(#aaef05dc91)"><g clip-path="url(#ea4daab9e7)"><path fill="#f96f32" d="M 11.695312 17.035156 C 14.476562 16.101562 17.488281 17.605469 18.421875 20.394531 C 19.359375 23.183594 17.863281 26.199219 15.085938 27.128906 C 12.304688 28.0625 9.292969 26.558594 8.359375 23.769531 C 7.421875 20.980469 8.917969 17.964844 11.695312 17.035156 " fill-opacity="1" fill-rule="nonzero"/></g></g></g><g clip-path="url(#cd583be989)"><g clip-path="url(#7344bc2c3d)"><g clip-path="url(#f7b80013b1)"><path fill="#f96f2f" d="M 8.097656 22.480469 C 8.710938 21.339844 9.746094 20.421875 11.070312 19.976562 C 13.847656 19.042969 16.859375 20.546875 17.796875 23.335938 C 17.9375 23.761719 18.023438 24.195312 18.058594 24.625 C 18.734375 23.375 18.910156 21.851562 18.421875 20.394531 C 17.488281 17.605469 14.476562 16.101562 11.695312 17.035156 C 9.34375 17.824219 7.910156 20.105469 8.097656 22.480469 " fill-opacity="1" fill-rule="nonzero"/></g></g></g><g clip-path="url(#3302e9a511)"><g clip-path="url(#d4c96d39a9)"><g clip-path="url(#161b416bea)"><path fill="#f96f32" d="M 40.992188 9.9375 C 42.84375 9.316406 44.851562 10.320312 45.476562 12.175781 C 46.101562 14.035156 45.101562 16.046875 43.25 16.667969 C 41.398438 17.289062 39.390625 16.289062 38.765625 14.429688 C 38.144531 12.570312 39.140625 10.558594 40.992188 9.9375 " fill-opacity="1" fill-rule="nonzero"/><path fill="#f96f2f" d="M 38.648438 12.621094 C 38.898438 12.457031 39.164062 12.320312 39.460938 12.222656 C 41.3125 11.601562 43.320312 12.605469 43.945312 14.460938 C 44.144531 15.066406 44.175781 15.6875 44.0625 16.269531 C 45.375 15.410156 46 13.742188 45.476562 12.175781 C 44.851562 10.320312 42.84375 9.316406 40.992188 9.9375 C 39.742188 10.355469 38.882812 11.410156 38.648438 12.621094 " fill-opacity="1" fill-rule="nonzero"/></g></g></g><g clip-path="url(#943eb6d862)"><g clip-path="url(#9d7bb12e77)"><g clip-path="url(#4530d2c8a0)"><path fill="#f96f32" d="M 46.957031 41.910156 C 48.808594 41.289062 50.816406 42.292969 51.441406 44.152344 C 52.0625 46.007812 51.066406 48.019531 49.214844 48.640625 C 47.359375 49.261719 45.355469 48.261719 44.730469 46.402344 C 44.105469 44.542969 45.101562 42.53125 46.957031 41.910156 " fill-opacity="1" fill-rule="nonzero"/><path fill="#f96f2f" d="M 44.996094 43.542969 C 45.082031 43.507812 45.167969 43.472656 45.257812 43.441406 C 47.109375 42.820312 49.117188 43.824219 49.742188 45.679688 C 50.070312 46.667969 49.941406 47.695312 49.472656 48.539062 C 51.15625 47.824219 52.03125 45.917969 51.441406 44.152344 C 50.816406 42.292969 48.808594 41.289062 46.957031 41.910156 C 46.085938 42.203125 45.410156 42.800781 44.996094 43.542969 " fill-opacity="1" fill-rule="nonzero"/></g></g></g><g clip-path="url(#bd6c24f4d7)"><g clip-path="url(#220b0e1eb4)"><g clip-path="url(#226f7fbfd9)"><path fill="#f96f32" d="M 29.648438 22.242188 C 35.222656 20.375 41.261719 23.390625 43.136719 28.980469 C 45.011719 34.574219 42.015625 40.621094 36.441406 42.492188 C 30.871094 44.359375 24.832031 41.34375 22.953125 35.753906 C 21.078125 30.160156 24.078125 24.113281 29.648438 22.242188 " fill-opacity="1" fill-rule="nonzero"/></g></g></g><g clip-path="url(#880c7f8cea)"><g clip-path="url(#e564f2a7c5)"><g clip-path="url(#06732693e1)"><path fill="#f96f2f" d="M 22.730469 29.703125 C 23.777344 28.761719 25.03125 28.015625 26.449219 27.539062 C 32.019531 25.667969 38.058594 28.683594 39.9375 34.277344 C 40.617188 36.308594 40.652344 38.398438 40.160156 40.328125 C 43.226562 37.570312 44.535156 33.148438 43.136719 28.980469 C 41.261719 23.390625 35.222656 20.375 29.648438 22.242188 C 26.101562 23.433594 23.597656 26.320312 22.730469 29.703125 " fill-opacity="1" fill-rule="nonzero"/></g></g></g><g fill="#000000" fill-opacity="1"><g transform="translate(52.411457, 46.586469)"><g><path d="M 25.390625 -11.015625 L 9.140625 -11.015625 C 9.378906 -9.023438 10.03125 -7.578125 11.09375 -6.671875 C 12.164062 -5.773438 13.679688 -5.328125 15.640625 -5.328125 C 16.929688 -5.328125 18.207031 -5.539062 19.46875 -5.96875 C 20.738281 -6.394531 21.898438 -6.992188 22.953125 -7.765625 L 24.984375 -2.640625 C 23.765625 -1.691406 22.28125 -0.945312 20.53125 -0.40625 C 18.789062 0.132812 17.039062 0.40625 15.28125 0.40625 C 11.082031 0.40625 7.773438 -0.75 5.359375 -3.0625 C 2.941406 -5.382812 1.734375 -8.546875 1.734375 -12.546875 C 1.734375 -15.085938 2.253906 -17.335938 3.296875 -19.296875 C 4.347656 -21.265625 5.804688 -22.796875 7.671875 -23.890625 C 9.535156 -24.992188 11.648438 -25.546875 14.015625 -25.546875 C 17.503906 -25.546875 20.269531 -24.410156 22.3125 -22.140625 C 24.363281 -19.867188 25.390625 -16.789062 25.390625 -12.90625 Z M 14.21875 -20.265625 C 12.757812 -20.265625 11.597656 -19.796875 10.734375 -18.859375 C 9.878906 -17.929688 9.347656 -16.585938 9.140625 -14.828125 L 18.9375 -14.828125 C 18.84375 -16.617188 18.394531 -17.972656 17.59375 -18.890625 C 16.800781 -19.804688 15.675781 -20.265625 14.21875 -20.265625 Z M 14.21875 -20.265625 "/></g></g></g><g fill="#000000" fill-opacity="1"><g transform="translate(79.475017, 46.586469)"><g><path d="M 18.59375 -25.546875 C 21.570312 -25.546875 23.785156 -24.671875 25.234375 -22.921875 C 26.691406 -21.179688 27.421875 -18.550781 27.421875 -15.03125 L 27.421875 0 L 19.75 0 L 19.75 -14.671875 C 19.75 -16.367188 19.4375 -17.601562 18.8125 -18.375 C 18.1875 -19.15625 17.210938 -19.546875 15.890625 -19.546875 C 14.304688 -19.546875 13.03125 -19.035156 12.0625 -18.015625 C 11.09375 -17.003906 10.609375 -15.65625 10.609375 -13.96875 L 10.609375 0 L 2.953125 0 L 2.953125 -24.9375 L 10.40625 -24.9375 L 10.40625 -21.375 C 11.289062 -22.726562 12.4375 -23.757812 13.84375 -24.46875 C 15.25 -25.1875 16.832031 -25.546875 18.59375 -25.546875 Z M 18.59375 -25.546875 "/></g></g></g><g fill="#000000" fill-opacity="1"><g transform="translate(109.686684, 46.586469)"><g><path d="M 16.765625 -5.234375 C 17.535156 -5.234375 18.347656 -5.285156 19.203125 -5.390625 L 18.796875 0.203125 C 17.804688 0.335938 16.820312 0.40625 15.84375 0.40625 C 12.050781 0.40625 9.28125 -0.421875 7.53125 -2.078125 C 5.789062 -3.742188 4.921875 -6.269531 4.921875 -9.65625 L 4.921875 -19.203125 L 0.203125 -19.203125 L 0.203125 -24.9375 L 4.921875 -24.9375 L 4.921875 -32.25 L 12.59375 -32.25 L 12.59375 -24.9375 L 18.84375 -24.9375 L 18.84375 -19.203125 L 12.59375 -19.203125 L 12.59375 -9.703125 C 12.59375 -6.722656 13.984375 -5.234375 16.765625 -5.234375 Z M 16.765625 -5.234375 "/></g></g></g><g fill="#000000" fill-opacity="1"><g transform="translate(129.336963, 46.586469)"><g><path d="M 25.390625 -11.015625 L 9.140625 -11.015625 C 9.378906 -9.023438 10.03125 -7.578125 11.09375 -6.671875 C 12.164062 -5.773438 13.679688 -5.328125 15.640625 -5.328125 C 16.929688 -5.328125 18.207031 -5.539062 19.46875 -5.96875 C 20.738281 -6.394531 21.898438 -6.992188 22.953125 -7.765625 L 24.984375 -2.640625 C 23.765625 -1.691406 22.28125 -0.945312 20.53125 -0.40625 C 18.789062 0.132812 17.039062 0.40625 15.28125 0.40625 C 11.082031 0.40625 7.773438 -0.75 5.359375 -3.0625 C 2.941406 -5.382812 1.734375 -8.546875 1.734375 -12.546875 C 1.734375 -15.085938 2.253906 -17.335938 3.296875 -19.296875 C 4.347656 -21.265625 5.804688 -22.796875 7.671875 -23.890625 C 9.535156 -24.992188 11.648438 -25.546875 14.015625 -25.546875 C 17.503906 -25.546875 20.269531 -24.410156 22.3125 -22.140625 C 24.363281 -19.867188 25.390625 -16.789062 25.390625 -12.90625 Z M 14.21875 -20.265625 C 12.757812 -20.265625 11.597656 -19.796875 10.734375 -18.859375 C 9.878906 -17.929688 9.347656 -16.585938 9.140625 -14.828125 L 18.9375 -14.828125 C 18.84375 -16.617188 18.394531 -17.972656 17.59375 -18.890625 C 16.800781 -19.804688 15.675781 -20.265625 14.21875 -20.265625 Z M 14.21875 -20.265625 "/></g></g></g><g fill="#000000" fill-opacity="1"><g transform="translate(156.400522, 46.586469)"><g><path d="M 28.390625 -24.9375 L 28.390625 -2.6875 C 28.390625 1.34375 27.238281 4.390625 24.9375 6.453125 C 22.632812 8.515625 19.234375 9.546875 14.734375 9.546875 C 12.492188 9.546875 10.347656 9.273438 8.296875 8.734375 C 6.253906 8.191406 4.453125 7.429688 2.890625 6.453125 L 4.921875 1.171875 C 8.140625 2.929688 11.34375 3.8125 14.53125 3.8125 C 18.726562 3.8125 20.828125 1.828125 20.828125 -2.140625 L 20.828125 -4.875 C 20.109375 -3.59375 19.035156 -2.578125 17.609375 -1.828125 C 16.191406 -1.085938 14.601562 -0.71875 12.84375 -0.71875 C 10.675781 -0.71875 8.753906 -1.222656 7.078125 -2.234375 C 5.410156 -3.253906 4.101562 -4.703125 3.15625 -6.578125 C 2.207031 -8.453125 1.734375 -10.628906 1.734375 -13.109375 C 1.734375 -15.578125 2.207031 -17.75 3.15625 -19.625 C 4.101562 -21.507812 5.410156 -22.96875 7.078125 -24 C 8.753906 -25.03125 10.675781 -25.546875 12.84375 -25.546875 C 14.570312 -25.546875 16.140625 -25.179688 17.546875 -24.453125 C 18.953125 -23.722656 20.023438 -22.71875 20.765625 -21.4375 L 20.765625 -24.9375 Z M 15.078125 -6.546875 C 16.878906 -6.546875 18.273438 -7.117188 19.265625 -8.265625 C 20.265625 -9.421875 20.765625 -11.035156 20.765625 -13.109375 C 20.765625 -15.171875 20.265625 -16.785156 19.265625 -17.953125 C 18.273438 -19.117188 16.878906 -19.703125 15.078125 -19.703125 C 13.285156 -19.703125 11.878906 -19.117188 10.859375 -17.953125 C 9.847656 -16.785156 9.34375 -15.171875 9.34375 -13.109375 C 9.34375 -11.078125 9.847656 -9.472656 10.859375 -8.296875 C 11.878906 -7.128906 13.285156 -6.546875 15.078125 -6.546875 Z M 15.078125 -6.546875 "/></g></g></g><g fill="#000000" fill-opacity="1"><g transform="translate(187.729259, 46.586469)"><g><path d="M 20.765625 -19.25 L 16.453125 -18.796875 C 14.316406 -18.585938 12.804688 -17.984375 11.921875 -16.984375 C 11.046875 -15.984375 10.609375 -14.65625 10.609375 -13 L 10.609375 0 L 2.953125 0 L 2.953125 -24.9375 L 10.3125 -24.9375 L 10.3125 -20.71875 C 11.5625 -23.59375 14.148438 -25.164062 18.078125 -25.4375 L 20.3125 -25.59375 Z M 20.765625 -19.25 "/></g></g></g><g fill="#000000" fill-opacity="1"><g transform="translate(208.090408, 46.586469)"><g><path d="M 2.953125 0 L 2.953125 -24.9375 L 10.609375 -24.9375 L 10.609375 0 Z M 2.6875 -36.921875 L 10.921875 -36.921875 L 10.921875 -29.765625 L 2.6875 -29.765625 Z M 2.6875 -36.921875 "/></g></g></g><g fill="#000000" fill-opacity="1"><g transform="translate(221.647583, 46.586469)"><g><path d="M 12.59375 -24.9375 L 18.84375 -24.9375 L 18.84375 -19.203125 L 12.59375 -19.203125 L 12.59375 0 L 4.921875 0 L 4.921875 -19.203125 L 0.203125 -19.203125 L 0.203125 -24.9375 L 4.921875 -24.9375 C 4.992188 -28.457031 6.019531 -31.101562 8 -32.875 C 9.976562 -34.65625 13 -35.664062 17.0625 -35.90625 L 19.859375 -36.0625 L 20.3125 -30.421875 L 17.921875 -30.3125 C 15.960938 -30.25 14.582031 -29.882812 13.78125 -29.21875 C 12.988281 -28.5625 12.59375 -27.472656 12.59375 -25.953125 Z M 12.59375 -24.9375 "/></g></g></g><g fill="#000000" fill-opacity="1"><g transform="translate(240.739321, 46.586469)"><g><path d="M 20.21875 -24.890625 L 27.734375 -24.890625 L 12.703125 9.140625 L 4.921875 9.140625 L 9.703125 -1.375 L -0.5625 -24.890625 L 7.421875 -24.890625 L 13.71875 -9.046875 Z M 20.21875 -24.890625 "/></g></g></g></svg>