<svg xmlns="http://www.w3.org/2000/svg" xmlns:xlink="http://www.w3.org/1999/xlink" width="50" zoomAndPan="magnify" viewBox="0 0 37.5 37.499999" height="50" preserveAspectRatio="xMidYMid meet" version="1.0"><defs><clipPath id="bb084344fa"><path d="M 0 0 L 37.007812 0 L 37.007812 37.007812 L 0 37.007812 Z M 0 0 " clip-rule="nonzero"/></clipPath></defs><g clip-path="url(#bb084344fa)"><path fill="#490362" d="M 37.5 18.75 C 37.5 19.363281 37.472656 19.976562 37.410156 20.589844 C 37.351562 21.199219 37.261719 21.804688 37.140625 22.40625 C 37.019531 23.011719 36.871094 23.605469 36.695312 24.191406 C 36.515625 24.78125 36.308594 25.359375 36.074219 25.925781 C 35.839844 26.492188 35.578125 27.046875 35.285156 27.589844 C 34.996094 28.128906 34.683594 28.65625 34.339844 29.167969 C 34 29.679688 33.632812 30.171875 33.246094 30.644531 C 32.855469 31.121094 32.441406 31.574219 32.007812 32.007812 C 31.574219 32.441406 31.121094 32.855469 30.644531 33.246094 C 30.171875 33.632812 29.679688 34 29.167969 34.339844 C 28.65625 34.683594 28.128906 34.996094 27.589844 35.285156 C 27.046875 35.578125 26.492188 35.839844 25.925781 36.074219 C 25.359375 36.308594 24.78125 36.515625 24.191406 36.695312 C 23.605469 36.871094 23.011719 37.019531 22.40625 37.140625 C 21.804688 37.261719 21.199219 37.351562 20.589844 37.410156 C 19.976562 37.472656 19.363281 37.5 18.75 37.5 C 18.136719 37.5 17.523438 37.472656 16.910156 37.410156 C 16.300781 37.351562 15.695312 37.261719 15.09375 37.140625 C 14.488281 37.019531 13.894531 36.871094 13.308594 36.695312 C 12.71875 36.515625 12.140625 36.308594 11.574219 36.074219 C 11.007812 35.839844 10.453125 35.578125 9.910156 35.285156 C 9.371094 34.996094 8.84375 34.683594 8.332031 34.339844 C 7.820312 34 7.328125 33.632812 6.855469 33.246094 C 6.378906 32.855469 5.925781 32.441406 5.492188 32.007812 C 5.058594 31.574219 4.644531 31.121094 4.253906 30.644531 C 3.867188 30.171875 3.5 29.679688 3.160156 29.167969 C 2.816406 28.65625 2.503906 28.128906 2.214844 27.589844 C 1.921875 27.046875 1.660156 26.492188 1.425781 25.925781 C 1.191406 25.359375 0.984375 24.78125 0.804688 24.191406 C 0.628906 23.605469 0.480469 23.011719 0.359375 22.40625 C 0.238281 21.804688 0.148438 21.199219 0.0898438 20.589844 C 0.0273438 19.976562 0 19.363281 0 18.75 C 0 18.136719 0.0273438 17.523438 0.0898438 16.910156 C 0.148438 16.300781 0.238281 15.695312 0.359375 15.09375 C 0.480469 14.488281 0.628906 13.894531 0.804688 13.308594 C 0.984375 12.71875 1.191406 12.140625 1.425781 11.574219 C 1.660156 11.007812 1.921875 10.453125 2.214844 9.910156 C 2.503906 9.371094 2.816406 8.84375 3.160156 8.332031 C 3.5 7.820312 3.867188 7.328125 4.253906 6.855469 C 4.644531 6.378906 5.058594 5.925781 5.492188 5.492188 C 5.925781 5.058594 6.378906 4.644531 6.855469 4.253906 C 7.328125 3.867188 7.820312 3.5 8.332031 3.160156 C 8.84375 2.816406 9.371094 2.503906 9.910156 2.214844 C 10.453125 1.921875 11.007812 1.660156 11.574219 1.425781 C 12.140625 1.191406 12.71875 0.984375 13.308594 0.804688 C 13.894531 0.628906 14.488281 0.480469 15.09375 0.359375 C 15.695312 0.238281 16.300781 0.148438 16.910156 0.0898438 C 17.523438 0.0273438 18.136719 0 18.75 0 C 19.363281 0 19.976562 0.0273438 20.589844 0.0898438 C 21.199219 0.148438 21.804688 0.238281 22.40625 0.359375 C 23.011719 0.480469 23.605469 0.628906 24.191406 0.804688 C 24.78125 0.984375 25.359375 1.191406 25.925781 1.425781 C 26.492188 1.660156 27.046875 1.921875 27.589844 2.214844 C 28.128906 2.503906 28.65625 2.816406 29.167969 3.160156 C 29.679688 3.5 30.171875 3.867188 30.644531 4.253906 C 31.121094 4.644531 31.574219 5.058594 32.007812 5.492188 C 32.441406 5.925781 32.855469 6.378906 33.246094 6.855469 C 33.632812 7.328125 34 7.820312 34.339844 8.332031 C 34.683594 8.84375 34.996094 9.371094 35.285156 9.910156 C 35.578125 10.453125 35.839844 11.007812 36.074219 11.574219 C 36.308594 12.140625 36.515625 12.71875 36.695312 13.308594 C 36.871094 13.894531 37.019531 14.488281 37.140625 15.09375 C 37.261719 15.695312 37.351562 16.300781 37.410156 16.910156 C 37.472656 17.523438 37.5 18.136719 37.5 18.75 Z M 37.5 18.75 " fill-opacity="1" fill-rule="nonzero"/></g><path fill="#ffffff" d="M 23.824219 23.894531 L 24.390625 23.328125 C 24.660156 23.0625 24.765625 22.742188 24.710938 22.367188 C 24.679688 22.152344 24.59375 21.960938 24.453125 21.796875 C 24.308594 21.628906 24.132812 21.515625 23.925781 21.453125 L 21.59375 20.734375 C 21.363281 20.664062 21.160156 20.710938 20.988281 20.882812 L 20.242188 21.632812 C 20.171875 21.703125 20.089844 21.714844 20.003906 21.664062 C 18.320312 20.714844 17.003906 19.398438 16.054688 17.714844 C 16.003906 17.625 16.015625 17.546875 16.085938 17.476562 L 16.832031 16.730469 C 17.003906 16.558594 17.054688 16.355469 16.984375 16.121094 L 16.265625 13.792969 C 16.203125 13.582031 16.085938 13.40625 15.921875 13.265625 C 15.753906 13.125 15.566406 13.039062 15.347656 13.007812 C 14.976562 12.953125 14.65625 13.058594 14.390625 13.324219 L 13.824219 13.890625 C 13.464844 14.25 13.289062 14.679688 13.292969 15.1875 C 13.296875 16.324219 13.523438 17.414062 13.960938 18.464844 C 14.398438 19.515625 15.019531 20.441406 15.824219 21.246094 L 16.472656 21.894531 C 17.277344 22.699219 18.203125 23.320312 19.25 23.757812 C 20.300781 24.195312 21.394531 24.417969 22.53125 24.425781 C 23.035156 24.429688 23.46875 24.25 23.824219 23.894531 Z M 23.824219 23.894531 " fill-opacity="1" fill-rule="nonzero"/><path fill="#ffffff" d="M 18.773438 30.351562 C 16.800781 30.355469 14.945312 29.886719 13.210938 28.949219 C 12.9375 28.804688 12.65625 28.773438 12.359375 28.855469 L 7.273438 30.21875 L 8.636719 25.132812 C 8.71875 24.835938 8.6875 24.554688 8.542969 24.28125 C 7.339844 22.054688 6.90625 19.6875 7.242188 17.179688 C 7.40625 15.929688 7.769531 14.742188 8.324219 13.609375 C 8.882812 12.480469 9.605469 11.46875 10.492188 10.574219 C 14.914062 6.105469 22.210938 5.996094 26.757812 10.332031 C 27.601562 11.132812 28.308594 12.035156 28.875 13.046875 C 29.445312 14.058594 29.855469 15.128906 30.105469 16.261719 C 30.351562 17.398438 30.429688 18.542969 30.335938 19.699219 C 30.238281 20.855469 29.976562 21.972656 29.546875 23.050781 C 29.117188 24.125 28.539062 25.117188 27.8125 26.023438 C 27.085938 26.925781 26.242188 27.703125 25.28125 28.355469 C 24.320312 29.003906 23.285156 29.5 22.175781 29.839844 C 21.066406 30.183594 19.933594 30.351562 18.773438 30.351562 Z M 12.671875 27.726562 C 13.046875 27.726562 13.398438 27.816406 13.726562 27.992188 C 15.753906 29.085938 17.910156 29.480469 20.191406 29.167969 C 21.171875 29.035156 22.117188 28.765625 23.019531 28.363281 C 23.925781 27.960938 24.757812 27.441406 25.515625 26.804688 C 26.273438 26.167969 26.929688 25.441406 27.484375 24.617188 C 28.035156 23.796875 28.464844 22.914062 28.769531 21.972656 C 29.074219 21.027344 29.238281 20.0625 29.269531 19.074219 C 29.300781 18.082031 29.195312 17.109375 28.953125 16.148438 C 28.707031 15.1875 28.335938 14.28125 27.835938 13.425781 C 27.335938 12.570312 26.726562 11.800781 26.007812 11.121094 C 21.886719 7.1875 15.273438 7.289062 11.265625 11.339844 C 10.460938 12.148438 9.804688 13.066406 9.300781 14.089844 C 8.796875 15.113281 8.46875 16.191406 8.320312 17.324219 C 8.015625 19.597656 8.410156 21.746094 9.496094 23.761719 C 9.78125 24.289062 9.84375 24.839844 9.683594 25.414062 L 8.808594 28.679688 L 12.078125 27.804688 C 12.273438 27.753906 12.472656 27.726562 12.671875 27.726562 Z M 12.671875 27.726562 " fill-opacity="1" fill-rule="nonzero"/></svg>